<svg width="90" height="181" viewBox="0 0 6 181" fill="none" xmlns="http://www.w3.org/2000/svg">
<path d="M0.333333 3C0.333333 4.47276 1.52724 5.66667 3 5.66667C4.47276 5.66667 5.66667 4.47276 5.66667 3C5.66667 1.52724 4.47276 0.333333 3 0.333333C1.52724 0.333333 0.333333 1.52724 0.333333 3ZM0.333333 177.5C0.333333 178.973 1.52724 180.167 3 180.167C4.47276 180.167 5.66667 178.973 5.66667 177.5C5.66667 176.027 4.47276 174.833 3 174.833C1.52724 174.833 0.333333 176.027 0.333333 177.5ZM2.5 3V177.5H3.5V3H2.5Z" fill="#F9F2E9"/>
</svg>
