<svg width="48" height="43" viewBox="0 0 48 43" fill="none" xmlns="http://www.w3.org/2000/svg">
<rect width="48" height="43" rx="10" fill="#FFB630"/>
<path fill-rule="evenodd" clip-rule="evenodd" d="M22.5443 11.25C23.085 10.9225 23.7051 10.7494 24.3372 10.7494C24.9693 10.7494 25.5893 10.9225 26.13 11.25L27.4031 12.0287C29.1894 13.1206 31.2237 13.3637 33.2675 13.6087C33.9281 13.6881 34.5893 13.7669 35.2437 13.875C35.2437 13.875 35.2581 15.0212 35.2431 15.5412L35.1125 20.0106C35 23.8437 33.2956 27.4781 30.3718 30.1194C28.9925 31.365 27.5656 32.4906 25.9262 33.4256C25.4431 33.6989 24.9014 33.8522 24.3467 33.8726C23.792 33.8929 23.2406 33.7797 22.7387 33.5425C20.8456 32.6425 19.1693 31.5012 17.6387 30.1194C14.715 27.4781 13.0106 23.8437 12.8987 20.0106L12.7687 15.5556C12.7531 15.0275 12.7687 13.875 12.7687 13.875C13.3 13.8125 13.8412 13.7606 14.3868 13.7087C16.795 13.48 19.2831 13.2437 21.3243 11.9962L22.545 11.25H22.5443ZM22.75 20.75V16.375H25.25V20.75H29.625V23.25H25.25V27.625H22.75V23.25H18.375V20.75H22.75Z" fill="white"/>
</svg>
