<svg width="48" height="43" viewBox="0 0 48 43" fill="none" xmlns="http://www.w3.org/2000/svg">
<rect width="48" height="43" rx="10" fill="#184B9A"/>
<path d="M30.875 24C30.3777 24 29.9008 23.8025 29.5492 23.4508C29.1975 23.0992 29 22.6223 29 22.125C29 21.6277 29.1975 21.1508 29.5492 20.7992C29.9008 20.4475 30.3777 20.25 30.875 20.25C31.3723 20.25 31.8492 20.4475 32.2008 20.7992C32.5525 21.1508 32.75 21.6277 32.75 22.125C32.75 22.6223 32.5525 23.0992 32.2008 23.4508C31.8492 23.8025 31.3723 24 30.875 24ZM27.125 19C26.6277 19 26.1508 18.8025 25.7992 18.4508C25.4475 18.0992 25.25 17.6223 25.25 17.125C25.25 16.6277 25.4475 16.1508 25.7992 15.7992C26.1508 15.4475 26.6277 15.25 27.125 15.25C27.6223 15.25 28.0992 15.4475 28.4508 15.7992C28.8025 16.1508 29 16.6277 29 17.125C29 17.6223 28.8025 18.0992 28.4508 18.4508C28.0992 18.8025 27.6223 19 27.125 19ZM20.875 19C20.3777 19 19.9008 18.8025 19.5492 18.4508C19.1975 18.0992 19 17.6223 19 17.125C19 16.6277 19.1975 16.1508 19.5492 15.7992C19.9008 15.4475 20.3777 15.25 20.875 15.25C21.3723 15.25 21.8492 15.4475 22.2008 15.7992C22.5525 16.1508 22.75 16.6277 22.75 17.125C22.75 17.6223 22.5525 18.0992 22.2008 18.4508C21.8492 18.8025 21.3723 19 20.875 19ZM17.125 24C16.6277 24 16.1508 23.8025 15.7992 23.4508C15.4475 23.0992 15.25 22.6223 15.25 22.125C15.25 21.6277 15.4475 21.1508 15.7992 20.7992C16.1508 20.4475 16.6277 20.25 17.125 20.25C17.6223 20.25 18.0992 20.4475 18.4508 20.7992C18.8025 21.1508 19 21.6277 19 22.125C19 22.6223 18.8025 23.0992 18.4508 23.4508C18.0992 23.8025 17.6223 24 17.125 24ZM24 12.75C21.0163 12.75 18.1548 13.9353 16.045 16.045C13.9353 18.1548 12.75 21.0163 12.75 24C12.75 26.9837 13.9353 29.8452 16.045 31.955C18.1548 34.0647 21.0163 35.25 24 35.25C24.4973 35.25 24.9742 35.0525 25.3258 34.7008C25.6775 34.3492 25.875 33.8723 25.875 33.375C25.875 32.8875 25.6875 32.45 25.3875 32.125C25.1 31.7875 24.9125 31.35 24.9125 30.875C24.9125 30.3777 25.11 29.9008 25.4617 29.5492C25.8133 29.1975 26.2902 29 26.7875 29H29C30.6576 29 32.2473 28.3415 33.4194 27.1694C34.5915 25.9973 35.25 24.4076 35.25 22.75C35.25 17.225 30.2125 12.75 24 12.75Z" fill="white"/>
</svg>
