<svg width="48" height="43" viewBox="0 0 48 43" fill="none" xmlns="http://www.w3.org/2000/svg">
<rect width="48" height="43" rx="10" fill="#0B9922"/>
<path d="M34.6146 18.0729C35.9167 16.7708 35.3229 15.25 34.6146 14.5104L31.4896 11.3854C30.1771 10.0833 28.6667 10.6771 27.9271 11.3854L26.1562 13.1667H23.4583C21.4792 13.1667 20.3333 14.2083 19.75 15.4062L15.125 20.0312V24.1979L14.3854 24.9271C13.0833 26.2396 13.6771 27.75 14.3854 28.4896L17.5104 31.6146C18.0729 32.1771 18.6771 32.3854 19.25 32.3854C19.9896 32.3854 20.6667 32.0208 21.0729 31.6146L23.8854 28.7917H27.625C29.3958 28.7917 30.2917 27.6875 30.6146 26.6042C31.7917 26.2917 32.4375 25.3958 32.6979 24.5208C34.3125 24.1042 34.9167 22.5729 34.9167 21.5V18.375H34.3021L34.6146 18.0729ZM32.8333 21.5C32.8333 21.9687 32.6354 22.5417 31.7917 22.5417H30.75V23.5833C30.75 24.0521 30.5521 24.625 29.7083 24.625H28.6667V25.6667C28.6667 26.1354 28.4687 26.7083 27.625 26.7083H23.0312L19.6146 30.125C19.2917 30.4271 19.1042 30.25 18.9896 30.1354L15.875 27.0312C15.5729 26.7083 15.75 26.5208 15.8646 26.4062L17.2083 25.0521V20.8854L19.2917 18.8021V20.4583C19.2917 21.7187 20.125 23.5833 22.4167 23.5833C24.7083 23.5833 25.5417 21.7187 25.5417 20.4583H32.8333V21.5ZM33.1354 16.5937L31.3646 18.375H23.4583V20.4583C23.4583 20.9271 23.2604 21.5 22.4167 21.5C21.5729 21.5 21.375 20.9271 21.375 20.4583V17.3333C21.375 16.8542 21.5521 15.25 23.4583 15.25H27.0104L29.3854 12.875C29.7083 12.5729 29.8958 12.75 30.0104 12.8646L33.125 15.9687C33.4271 16.2917 33.25 16.4792 33.1354 16.5937Z" fill="white"/>
</svg>
