<svg width="48" height="43" viewBox="0 0 48 43" fill="none" xmlns="http://www.w3.org/2000/svg">
<rect width="48" height="43" rx="10" fill="#184B9A"/>
<path d="M34.75 16.5833C34.75 18.9775 30.3842 20.9167 25 20.9167C19.6158 20.9167 15.25 18.9775 15.25 16.5833M34.75 16.5833C34.75 14.1892 30.3842 12.25 25 12.25C19.6158 12.25 15.25 14.1892 15.25 16.5833M34.75 16.5833V22M15.25 16.5833V22M34.75 22C34.75 24.3942 30.3842 26.3333 25 26.3333C19.6158 26.3333 15.25 24.3942 15.25 22M34.75 22V27.4167C34.75 29.8108 30.3842 31.75 25 31.75C19.6158 31.75 15.25 29.8108 15.25 27.4167V22" stroke="white" stroke-width="2" stroke-linecap="round" stroke-linejoin="round"/>
</svg>
