<svg width="48" height="43" viewBox="0 0 48 43" fill="none" xmlns="http://www.w3.org/2000/svg">
<rect width="48" height="43" rx="10" fill="#FFB630"/>
<path d="M23.9745 8.79553C19.1933 8.79553 15.026 11.5323 12.8547 15.5877H15.8014L16.7822 13.6259H23.5712C23.6916 13.3779 23.8886 13.1706 24.113 13.021C24.4822 12.7749 24.9445 12.6452 25.4459 12.6452C25.9471 12.6452 26.4095 12.7749 26.7787 13.021C27.148 13.2671 27.4444 13.6687 27.4444 14.1533C27.4444 14.6379 27.1479 15.0394 26.7787 15.2856C26.4095 15.5317 25.9471 15.6614 25.4459 15.6614C24.9445 15.6614 24.4822 15.5317 24.113 15.2856C23.8886 15.136 23.6915 14.9287 23.5711 14.6805H17.4339L16.9804 15.5877H20.0508V16.6423H12.3482C12.2208 16.9403 12.1044 17.2429 11.9989 17.5493H14.1654V18.6039H11.6837C11.4489 19.5242 11.3078 20.4843 11.2705 21.4728H17.709L18.6899 18.5302H21.0318V19.5848H19.45L18.8205 21.4728H21.6092C21.7297 21.2247 21.9267 21.0174 22.1511 20.8678C22.5203 20.6216 22.9827 20.492 23.484 20.492C23.9853 20.492 24.4476 20.6216 24.8169 20.8678C25.1861 21.1139 25.4827 21.5155 25.4827 22C25.4827 22.4846 25.1861 22.8862 24.8169 23.1323C24.4476 23.3785 23.9853 23.5081 23.484 23.5081C22.9827 23.5081 22.5203 23.3785 22.1511 23.1323C21.9267 22.9827 21.7297 22.7755 21.6092 22.5273H15.9994L17.4339 25.3962H22.0126V26.4508H16.7822L14.8204 22.5273H11.2705C11.3651 25.0366 12.1312 27.3628 13.3874 29.3196H18.6665C18.7869 29.0714 18.9841 28.8641 19.2085 28.7145C19.5778 28.4684 20.0399 28.3387 20.5413 28.3387C21.0425 28.3387 21.5049 28.4684 21.8742 28.7145C22.2434 28.9606 22.54 29.3622 22.54 29.8468C22.54 30.3314 22.2434 30.7329 21.8742 30.9791C21.5049 31.2252 21.0425 31.3549 20.5413 31.3549C20.0399 31.3549 19.5778 31.2252 19.2085 30.9791C18.9841 30.8295 18.787 30.6222 18.6666 30.3741H18.0933L19.3521 32.262H23.6487L24.6295 30.3003H26.9172V31.3549H25.2813L24.8276 32.2621H27.8981V33.3167H18.7878L16.8259 30.3741H14.1396C16.4722 33.3255 20.0126 35.2046 23.9745 35.2046C29.3848 35.2046 34.0094 31.7004 35.8445 26.7461C35.5584 27.3618 35.2134 27.8796 34.7947 28.2633C34.3721 28.6506 33.8537 28.9028 33.2931 28.9028C32.7324 28.9028 32.214 28.6506 31.7913 28.2633C31.3687 27.876 31.0211 27.3524 30.7335 26.7292C30.1582 25.4828 29.8231 23.8264 29.8231 22C29.8231 20.1737 30.1582 18.5172 30.7335 17.2709C31.0212 16.6477 31.3687 16.1241 31.7914 15.7368C32.214 15.3495 32.7324 15.0973 33.2931 15.0973C33.8537 15.0973 34.3721 15.3495 34.7947 15.7368C35.2134 16.1205 35.5584 16.6383 35.8445 17.254C34.0094 12.2997 29.3848 8.79553 23.9745 8.79553ZM25.4459 13.6998C25.1345 13.6998 24.8611 13.7896 24.6979 13.8984C24.5346 14.0073 24.5017 14.0962 24.5017 14.1533C24.5017 14.2104 24.5346 14.2993 24.6979 14.4082C24.8612 14.517 25.1345 14.6068 25.4459 14.6068C25.7572 14.6068 26.0306 14.517 26.1938 14.4082C26.3571 14.2993 26.3899 14.2104 26.3899 14.1533C26.3899 14.0962 26.357 14.0073 26.1938 13.8984C26.0306 13.7896 25.7572 13.6998 25.4459 13.6998ZM34.7644 18.5888C34.0849 18.5888 33.5869 19.1048 33.2779 19.7226C32.969 20.3405 32.7996 21.1312 32.7996 22C32.7996 22.8689 32.969 23.6596 33.278 24.2774C33.5869 24.8953 34.0848 25.4113 34.7644 25.4113C35.444 25.4113 35.942 24.8953 36.251 24.2774C36.56 23.6596 36.7294 22.8689 36.7294 22C36.7294 21.1312 36.56 20.3405 36.251 19.7227C35.942 19.1048 35.444 18.5888 34.7644 18.5888ZM35.0347 19.7699C35.1259 19.8576 35.2258 19.9907 35.3236 20.1863C35.5382 20.6154 35.6927 21.2713 35.6927 22C35.6927 22.7288 35.5382 23.3846 35.3235 23.8138C35.109 24.243 34.8837 24.3746 34.7644 24.3746C34.6451 24.3746 34.4199 24.243 34.2053 23.8138C33.9906 23.3847 33.8363 22.7288 33.8363 22C33.8363 21.9852 33.8368 21.9706 33.8369 21.9559C33.9744 22.0637 34.1273 22.1202 34.2824 22.1205C34.5382 22.1205 34.7834 21.9681 34.9643 21.6968C35.1451 21.4256 35.2467 21.0577 35.2467 20.6741C35.2466 20.3453 35.1718 20.0264 35.0347 19.7699ZM23.484 21.5465C23.1727 21.5465 22.8994 21.6364 22.7361 21.7452C22.5728 21.854 22.54 21.9429 22.54 22C22.54 22.0572 22.5728 22.1461 22.7361 22.2549C22.8994 22.3637 23.1727 22.4536 23.484 22.4536C23.7953 22.4536 24.0687 22.3637 24.232 22.2549C24.3952 22.1461 24.4281 22.0572 24.4281 22C24.4281 21.9429 24.3952 21.854 24.232 21.7452C24.0687 21.6364 23.7953 21.5465 23.484 21.5465ZM20.5413 29.3933C20.2299 29.3933 19.9566 29.4831 19.7934 29.5919C19.6301 29.7008 19.5972 29.7897 19.5972 29.8468C19.5972 29.9039 19.6301 29.9928 19.7934 30.1017C19.9566 30.2105 20.2299 30.3003 20.5413 30.3003C20.8526 30.3003 21.126 30.2105 21.2892 30.1017C21.4525 29.9928 21.4854 29.9039 21.4854 29.8468C21.4854 29.7897 21.4525 29.7008 21.2892 29.5919C21.126 29.4831 20.8526 29.3933 20.5413 29.3933Z" fill="white"/>
</svg>
