<svg width="48" height="43" viewBox="0 0 48 43" fill="none" xmlns="http://www.w3.org/2000/svg">
<rect width="48" height="43" rx="10" fill="#184B9A"/>
<g clip-path="url(#clip0_344_392)">
<path d="M31.0393 22.6661C32.723 21.6759 34.4021 20.6776 36.0915 19.6978C37.695 18.7673 39.5815 19.6253 39.9451 21.4358C40.1555 22.4831 39.6988 23.6144 38.7755 24.1655C35.7482 25.972 32.7166 27.7712 29.6698 29.543C28.7268 30.0914 27.7555 29.9905 26.8961 29.3185C26.0231 28.6363 25.748 27.6952 25.9527 26.5999C26.1865 25.7661 26.7215 25.2087 27.4511 24.7917C28.6573 24.1023 29.8442 23.3765 31.0393 22.6661Z" fill="white"/>
<path d="M32.2754 21.9461C30.596 20.9483 28.9124 19.9582 27.2389 18.9502C25.6503 17.9933 25.4328 15.8912 26.782 14.6635C27.5625 13.9534 28.7477 13.7925 29.6754 14.3359C32.7169 16.1173 35.7544 17.9062 38.7762 19.7221C39.7114 20.2842 40.1117 21.1962 39.9733 22.2943C39.8327 23.4094 39.1745 24.1239 38.1458 24.4901C37.3237 24.6998 36.5848 24.504 35.8673 24.0654C34.681 23.3403 33.4738 22.6507 32.2754 21.9461Z" fill="white"/>
<path d="M16.969 21.2401C15.8914 21.867 14.8131 22.4928 13.7365 23.1217C13.1069 23.4895 12.484 23.87 11.8511 24.2317C10.5757 24.9606 9.06048 24.5334 8.33735 23.2494C7.64723 22.0242 8.04385 20.4357 9.2721 19.7015C12.2752 17.9066 15.2861 16.1247 18.3079 14.3626C19.2346 13.8223 20.1961 13.8903 21.0531 14.5363C21.9576 15.2182 22.2537 16.1777 22.0506 17.3024C21.9246 17.5747 21.8494 17.8938 21.6606 18.1082C21.3539 18.457 21.0051 18.7909 20.6169 19.0362C19.4154 19.7948 18.1869 20.5088 16.969 21.2401Z" fill="white"/>
<path d="M15.7335 21.9434C16.8026 22.5854 17.871 23.2289 18.9411 23.8691C19.567 24.2436 20.2001 24.6058 20.8225 24.986C22.0768 25.7528 22.4731 27.31 21.7488 28.5932C21.0575 29.8179 19.5159 30.2605 18.2808 29.5382C15.2611 27.7725 12.2488 25.9935 9.24775 24.1947C8.32738 23.6431 7.90413 22.7564 8.022 21.6734C8.14638 20.5302 8.80975 19.788 9.86263 19.4056C10.1558 19.3814 10.4633 19.2885 10.739 19.3487C11.1874 19.4465 11.6443 19.5887 12.0458 19.8104C13.2881 20.4964 14.5061 21.2289 15.7335 21.9434Z" fill="white"/>
</g>
<defs>
<clipPath id="clip0_344_392">
<rect width="32" height="16" fill="white" transform="translate(8 14)"/>
</clipPath>
</defs>
</svg>
