<svg width="48" height="43" viewBox="0 0 48 43" fill="none" xmlns="http://www.w3.org/2000/svg">
<rect width="48" height="43" rx="10" fill="#0B9922"/>
<path d="M23.9999 13.6428C30.5142 13.6428 35.7857 17.9286 35.7857 24.3571V32.9286H12.2142V24.3571C12.2142 17.9286 17.4857 13.6428 23.9999 13.6428ZM23.9999 13.6428V5.07141M12.2142 26.5H35.7857M19.7142 26.5V32.9286M28.2857 26.5V32.9286" stroke="white" stroke-linecap="round" stroke-linejoin="round"/>
<path d="M19.7143 22.2143C20.306 22.2143 20.7857 21.7346 20.7857 21.1428C20.7857 20.5511 20.306 20.0714 19.7143 20.0714C19.1225 20.0714 18.6428 20.5511 18.6428 21.1428C18.6428 21.7346 19.1225 22.2143 19.7143 22.2143Z" stroke="white" stroke-linecap="round" stroke-linejoin="round"/>
<path d="M28.2857 22.2143C28.8774 22.2143 29.3571 21.7346 29.3571 21.1428C29.3571 20.5511 28.8774 20.0714 28.2857 20.0714C27.6939 20.0714 27.2142 20.5511 27.2142 21.1428C27.2142 21.7346 27.6939 22.2143 28.2857 22.2143Z" stroke="white" stroke-linecap="round" stroke-linejoin="round"/>
</svg>
