<svg width="20" height="20" viewBox="0 0 20 20" fill="none" xmlns="http://www.w3.org/2000/svg">
<g id="simple-icons:threads">
<path id="Vector" d="M14.7858 9.26917C14.6991 9.22796 14.6116 9.1885 14.5233 9.15083C14.3692 6.30583 12.815 4.6775 10.205 4.66083H10.17C8.60833 4.66083 7.31083 5.3275 6.51167 6.54L7.94667 7.52417C8.54333 6.61833 9.48 6.425 10.1708 6.425H10.1942C11.0533 6.43083 11.7025 6.68083 12.1217 7.16833C12.4275 7.5225 12.6317 8.01333 12.7325 8.63167C11.9174 8.49931 11.0899 8.45934 10.2658 8.5125C7.785 8.65583 6.18917 10.1025 6.29667 12.1133C6.35083 13.1333 6.85917 14.0108 7.7275 14.5842C8.46083 15.0692 9.40667 15.3058 10.39 15.2525C11.6875 15.1808 12.705 14.6858 13.415 13.7808C13.955 13.0933 14.2958 12.2025 14.4467 11.08C15.065 11.4533 15.5233 11.9442 15.7767 12.5342C16.2075 13.5383 16.2325 15.1875 14.8867 16.5317C13.7075 17.71 12.29 18.2192 10.1483 18.235C7.7725 18.2183 5.975 17.4558 4.80667 15.9708C3.7125 14.5792 3.1475 12.5708 3.12667 10C3.1475 7.42917 3.7125 5.42 4.80667 4.02917C5.975 2.54417 7.77167 1.7825 10.1483 1.765C12.5408 1.78167 14.3692 2.54833 15.5825 4.04C16.1775 4.7725 16.6258 5.6925 16.9217 6.765L18.6033 6.31667C18.245 4.99583 17.6808 3.85833 16.9142 2.91417C15.3583 1 13.0833 0.02 10.1542 0H10.1425C7.21667 0.02 4.96917 1.00417 3.45833 2.925C2.11333 4.63333 1.42 7.0125 1.39667 9.99333V10.0067C1.42 12.9883 2.11333 15.3658 3.4575 17.075C4.96833 18.9958 7.2175 19.98 10.1425 20H10.1542C12.7542 19.9817 14.5867 19.3008 16.0958 17.7925C18.0717 15.8192 18.0125 13.3458 17.3608 11.8275C16.8942 10.7383 16.0033 9.85417 14.7858 9.26917ZM10.2967 13.49C9.20917 13.5517 8.08 13.0633 8.02333 12.0183C7.98167 11.2433 8.575 10.3775 10.3633 10.275C10.5683 10.2625 10.7692 10.2575 10.9667 10.2575C11.6167 10.2575 12.2233 10.32 12.7758 10.4408C12.57 13.0142 11.3617 13.4317 10.2967 13.49Z" fill="white"/>
</g>
</svg>
